<svg width="32" height="33" viewBox="0 0 32 33" fill="none" xmlns="http://www.w3.org/2000/svg">
<g filter="url(#filter0_d_12_3732)">
<path fill-rule="evenodd" clip-rule="evenodd" d="M13.7404 2.3997H13.6793H13.6792C11.2465 2.39969 9.33904 2.39968 7.85054 2.5998C6.32658 2.8047 5.12254 3.23246 4.17727 4.17774C3.23199 5.12301 2.80422 6.32705 2.59933 7.85102C2.39921 9.33952 2.39922 11.247 2.39923 13.6797V13.6797V13.7409V18.2585V18.3197V18.3197C2.39922 20.7524 2.39921 22.6599 2.59933 24.1484C2.80422 25.6724 3.23199 26.8764 4.17727 27.8217C5.12254 28.7669 6.32658 29.1947 7.85055 29.3996C9.33905 29.5997 11.2465 29.5997 13.6793 29.5997H13.6793H13.7404H18.2581H18.3192H18.3192C20.7519 29.5997 22.6594 29.5997 24.1479 29.3996C25.6719 29.1947 26.8759 28.7669 27.8212 27.8217C28.7665 26.8764 29.1942 25.6724 29.3991 24.1484C29.5993 22.6599 29.5992 20.7524 29.5992 18.3197V18.3196V18.2585V13.7409V13.6798V13.6797C29.5992 11.247 29.5993 9.33952 29.3991 7.85102C29.1942 6.32705 28.7665 5.12301 27.8212 4.17774C26.8759 3.23246 25.6719 2.8047 24.1479 2.5998C22.6594 2.39968 20.752 2.39969 18.3192 2.3997H18.3192H18.258H13.7404ZM5.30864 5.30911C5.90708 4.71067 6.71719 4.36657 8.06374 4.18554C8.71448 4.09805 9.46238 4.05174 10.3371 4.02724L7.01895 10H4.03757C4.06412 9.2684 4.10905 8.62963 4.18506 8.06421C4.3661 6.71767 4.71019 5.90755 5.30864 5.30911ZM8.84928 10L12.1816 4.00189C12.6687 3.99979 13.1874 3.9997 13.7404 3.9997H17.5556L14.2221 10H8.84928ZM16.0524 10H21.4213L24.5906 4.29532C24.387 4.25347 24.169 4.21703 23.9347 4.18554C22.7797 4.03025 21.3187 4.00472 19.3854 4.00053L16.0524 10ZM27.9609 10H23.2516L26.1113 4.85254C26.327 4.98503 26.5172 5.13649 26.6898 5.30911C27.2883 5.90755 27.6324 6.71767 27.8134 8.06421C27.8894 8.62963 27.9343 9.26839 27.9609 10ZM21.0787 19.0682C21.4368 19.2968 21.4368 19.8491 21.0787 20.0778L13.4864 24.925C13.1176 25.1604 12.6485 24.8778 12.6485 24.4202V14.7258C12.6485 14.2682 13.1176 13.9856 13.4864 14.221L21.0787 19.0682Z" fill="url(#paint0_linear_12_3732)"/>
</g>
<defs>
<filter id="filter0_d_12_3732" x="-0.0007689" y="0.799704" width="32" height="32" filterUnits="userSpaceOnUse" color-interpolation-filters="sRGB">
<feFlood flood-opacity="0" result="BackgroundImageFix"/>
<feColorMatrix in="SourceAlpha" type="matrix" values="0 0 0 0 0 0 0 0 0 0 0 0 0 0 0 0 0 0 127 0" result="hardAlpha"/>
<feOffset dy="0.8"/>
<feGaussianBlur stdDeviation="1.2"/>
<feComposite in2="hardAlpha" operator="out"/>
<feColorMatrix type="matrix" values="0 0 0 0 0 0 0 0 0 0 0 0 0 0 0 0 0 0 0.6 0"/>
<feBlend mode="normal" in2="BackgroundImageFix" result="effect1_dropShadow_12_3732"/>
<feBlend mode="normal" in="SourceGraphic" in2="effect1_dropShadow_12_3732" result="shape"/>
</filter>
<linearGradient id="paint0_linear_12_3732" x1="15.9992" y1="2.3997" x2="15.9992" y2="29.5997" gradientUnits="userSpaceOnUse">
<stop stop-color="#F3F1ED"/>
<stop offset="1" stop-color="#B8B8B8"/>
</linearGradient>
</defs>
</svg>
