<svg width="16" height="16" viewBox="0 0 16 16" fill="none" xmlns="http://www.w3.org/2000/svg">
<path d="M1.28206 5.4871C1.61026 4.25633 2.78633 3.53838 3.33334 3.33325V5.99992C3.77779 7.09394 5.17951 9.67171 7.23079 11.2307C9.28207 12.7897 11.8462 12.8375 12.8718 12.6666L10.8205 14.7179C9.45301 14.8546 6.16411 14.5948 3.94872 12.4615C1.17949 9.79479 0.871802 7.02556 1.28206 5.4871Z" fill="url(#paint0_linear_12_3723)"/>
<ellipse cx="8.97659" cy="6.96522" rx="4.24148" ry="6.50326" transform="rotate(-43.6974 8.97659 6.96522)" fill="url(#paint1_linear_12_3723)"/>
<path d="M14.9134 8.09056C14.4878 6.36461 13.5815 4.79426 12.3007 3.56148C11.0681 2.28267 9.50019 1.37701 7.77618 0.948765C6.12099 0.58889 4.69101 0.908287 3.7513 1.84812L1.70024 3.90355C-0.184542 5.78833 0.580152 9.62411 3.40918 12.4486C5.20783 14.2472 7.36704 15.1921 9.21069 15.1921C10.229 15.2326 11.2206 14.8595 11.9588 14.1575L14.0098 12.1064C14.9541 11.171 15.2735 9.74107 14.9136 8.09025L14.9134 8.09056ZM7.56942 1.88864C9.11326 2.2757 10.5166 3.09095 11.6171 4.24069C12.767 5.34243 13.5835 6.74461 13.9737 8.28841C14.2571 9.61088 14.0319 10.7259 13.3261 11.4367C11.8152 12.9477 8.59026 12.1786 6.13006 9.7234C3.66985 7.26757 2.91471 4.04268 4.43002 2.53175C5.16303 1.7671 6.48107 1.62797 7.56959 1.88853L7.56942 1.88864ZM4.42111 12.1022L5.79733 10.7259C6.52782 11.3995 7.35192 11.963 8.24361 12.3994L6.89459 13.7485C5.99145 13.338 5.16168 12.7821 4.43876 12.1022H4.42111ZM2.10954 8.95385L3.45856 7.60483C3.89243 8.49722 4.45595 9.32074 5.13205 10.0474L3.76025 11.4236C3.08289 10.6912 2.53139 9.85259 2.12724 8.94058L2.10954 8.95385ZM2.36126 4.5956L2.72114 4.23572V4.23635C2.67813 5.05728 2.79893 5.87827 3.07657 6.65171L1.77688 7.93307C1.4303 6.58846 1.60107 5.36082 2.37962 4.58302L2.36126 4.5956ZM11.2795 13.4829C10.5016 14.2608 9.2733 14.4316 7.92881 14.0857L9.21081 12.7948C9.86667 13.0231 10.5541 13.1446 11.2486 13.1547H11.6217L11.2795 13.4829Z" fill="#3D3E40"/>
<path d="M6.84441 4.94207C7.48762 4.29885 8.9625 4.69035 10.0693 5.79209C10.2597 5.95969 10.5474 5.9502 10.7264 5.77122C10.9061 5.59159 10.9155 5.30383 10.7479 5.11346C9.2098 3.59304 7.21314 3.21994 6.16511 4.26786C6.07467 4.35641 6.02344 4.47784 6.02344 4.60495C6.02344 4.73207 6.07467 4.85352 6.16511 4.94205C6.25492 5.03312 6.37698 5.08435 6.50474 5.08435C6.63251 5.08435 6.7546 5.03314 6.84441 4.94207Z" fill="#3D3E40"/>
<path d="M7.69265 8.16689C7.50354 7.98221 7.20251 7.98221 7.0134 8.16689C6.92232 8.2567 6.87109 8.37876 6.87109 8.50652C6.87109 8.63428 6.92232 8.75635 7.0134 8.84616C7.80081 9.70188 8.88862 10.2192 10.0492 10.2901C10.6241 10.3084 11.1813 10.094 11.5962 9.69618C11.7808 9.50707 11.7808 9.20603 11.5962 9.01692C11.507 8.92585 11.3843 8.87462 11.2565 8.87462C11.1294 8.87462 11.0067 8.92585 10.9175 9.01692C10.2743 9.66014 8.79444 9.27305 7.69265 8.16689Z" fill="#3D3E40"/>
<defs>
<linearGradient id="paint0_linear_12_3723" x1="2.20515" y1="3.64094" x2="11.641" y2="14.205" gradientUnits="userSpaceOnUse">
<stop stop-color="white"/>
<stop offset="0.18" stop-color="#CBCBCB"/>
<stop offset="0.535" stop-color="white"/>
<stop offset="0.795" stop-color="#C6C6C6"/>
<stop offset="0.985" stop-color="#C6C6C6"/>
</linearGradient>
<linearGradient id="paint1_linear_12_3723" x1="8.97659" y1="0.461966" x2="8.97659" y2="13.4685" gradientUnits="userSpaceOnUse">
<stop stop-color="white"/>
<stop offset="0.18" stop-color="#CBCBCB"/>
<stop offset="0.535" stop-color="white"/>
<stop offset="0.795" stop-color="#C6C6C6"/>
<stop offset="0.985" stop-color="#C6C6C6"/>
</linearGradient>
</defs>
</svg>
