<svg width="83" height="90" viewBox="0 0 83 90" fill="none" xmlns="http://www.w3.org/2000/svg">
<path d="M81.252 42.4722V89.0328H1.74801V42.4722L41.5 17.1515L81.252 42.4722Z" fill="#EBE7E1" stroke="#282827" stroke-width="0.496015"/>
<path d="M71.5533 65.3911H11.4462V0.248007H60.0835L71.5533 11.7242V65.3911Z" fill="white" stroke="#282827" stroke-width="0.496015"/>
<path d="M42.0921 21.1922L43.5675 22.3705C44.0039 22.719 44.5543 22.8928 45.1117 22.858L47.019 22.739C47.8521 22.687 48.6059 23.2307 48.8196 24.0376L49.2603 25.7015C49.4092 26.2637 49.77 26.7465 50.2671 27.0484L51.7685 27.9606C52.5063 28.4089 52.807 29.3282 52.4767 30.1258L51.85 31.6391C51.6217 32.1903 51.6217 32.8097 51.85 33.3609L52.4767 34.8742C52.807 35.6718 52.5063 36.5911 51.7685 37.0394L50.2671 37.9516C49.77 38.2535 49.4092 38.7363 49.2603 39.2985L48.8196 40.9624C48.6059 41.7693 47.8521 42.313 47.019 42.261L45.1117 42.142C44.5543 42.1072 44.0039 42.281 43.5675 42.6295L42.0921 43.8078C41.4534 44.3179 40.5466 44.3179 39.9079 43.8078L38.4325 42.6295C37.9961 42.281 37.4457 42.1072 36.8883 42.142L34.981 42.261C34.1479 42.313 33.3941 41.7693 33.1804 40.9624L32.7397 39.2985C32.5908 38.7363 32.23 38.2535 31.7329 37.9516L30.2315 37.0394C29.4937 36.5911 29.193 35.6718 29.5233 34.8742L30.15 33.3609C30.3783 32.8097 30.3783 32.1903 30.15 31.6391L29.5233 30.1258C29.193 29.3282 29.4937 28.4089 30.2315 27.9606L31.7329 27.0484C32.23 26.7465 32.5908 26.2637 32.7397 25.7015L33.1804 24.0376C33.3941 23.2307 34.1479 22.687 34.981 22.739L36.8883 22.858C37.4457 22.8928 37.9961 22.719 38.4325 22.3705L39.9079 21.1922C40.5466 20.6821 41.4534 20.6821 42.0921 21.1922Z" fill="#282827" stroke="#282827" stroke-width="0.5"/>
<path d="M46.4732 28.7691L39.1984 36.044L35.8916 32.7373" stroke="white" stroke-linecap="round" stroke-linejoin="round"/>
<path d="M60.4316 11.3735V0.598859L71.2033 11.3735H60.4316Z" fill="#E0DCD7" stroke="#282827" stroke-width="0.496015"/>
<path d="M41.352 72.2726L41.5 72.3826L41.648 72.2726L81.252 42.8284V89.0316H1.74801V42.8284L41.352 72.2726Z" fill="white" stroke="#282827" stroke-width="0.496015"/>
<path d="M80.7645 89.0314H2.23553L41.5 59.1564L80.7645 89.0314Z" fill="white" stroke="#282827" stroke-width="0.496015"/>
</svg>
