<svg width="20" height="20" viewBox="0 0 20 20" fill="none" xmlns="http://www.w3.org/2000/svg">
<path d="M18.8921 10.1701C18.8921 9.42522 18.8317 8.88164 18.7009 8.31793H10.1948V11.68H15.1877C15.0871 12.5156 14.5435 13.7739 13.3355 14.6194L13.3186 14.7319L16.008 16.8154L16.1943 16.834C17.9056 15.2536 18.8921 12.9283 18.8921 10.1701Z" fill="#4285F4"/>
<path d="M10.1951 19.0285C12.6412 19.0285 14.6947 18.2231 16.1947 16.834L13.3358 14.6194C12.5708 15.1529 11.544 15.5254 10.1951 15.5254C7.79938 15.5254 5.766 13.945 5.04115 11.7606L4.93491 11.7696L2.13838 13.9339L2.10181 14.0356C3.59161 16.995 6.65177 19.0285 10.1951 19.0285Z" fill="#34A853"/>
<path d="M5.04168 11.7606C4.85042 11.1969 4.73973 10.5929 4.73973 9.96881C4.73973 9.34466 4.85042 8.7407 5.03161 8.17699L5.02655 8.05694L2.19497 5.85791L2.10233 5.90198C1.48831 7.13008 1.13599 8.50919 1.13599 9.96881C1.13599 11.4284 1.48831 12.8075 2.10233 14.0356L5.04168 11.7606Z" fill="#FBBC05"/>
<path d="M10.1951 4.41217C11.8963 4.41217 13.0439 5.14701 13.6982 5.7611L16.255 3.26464C14.6847 1.80502 12.6412 0.909119 10.1951 0.909119C6.65177 0.909119 3.59161 2.9425 2.10181 5.90197L5.03109 8.17699C5.766 5.9926 7.79938 4.41217 10.1951 4.41217Z" fill="#EB4335"/>
</svg>
