<svg width="150" height="103" viewBox="0 0 150 103" fill="none" xmlns="http://www.w3.org/2000/svg">
<path d="M16.4574 72V33.263H22.6553V65.9128H37.2646V72H16.4574ZM44.1414 61.209V43.0026C44.1414 41.0473 44.9715 39.0551 46.6316 37.026C48.8452 34.3698 51.649 33.0232 55.0431 32.9863V39.1289C53.1247 39.1658 51.6859 40.1988 50.7267 42.2279C50.4315 42.8919 50.284 43.4453 50.284 43.888V61.209C50.284 63.2012 51.317 64.6769 53.3829 65.6361C54.0101 65.9312 54.545 66.0788 54.9877 66.0788V72.2767C52.8849 72.2767 50.782 71.5204 48.6791 70.0078C45.6909 67.7943 44.1783 64.8613 44.1414 61.209ZM58.0314 72.2767V66.0788C58.9906 66.0788 59.9867 65.6361 61.0196 64.7507C62.1264 63.7546 62.6982 62.574 62.7351 61.209V43.888C62.7351 42.7812 62.2555 41.7114 61.2963 40.6784C60.374 39.6823 59.2857 39.1658 58.0314 39.1289V32.9863C61.7575 32.9863 64.7458 34.5911 66.9962 37.8008C68.2874 39.6454 68.9331 41.3793 68.9331 43.0026V61.209C68.9331 65.304 67.1069 68.4399 63.4545 70.6165C61.5361 71.7233 59.7284 72.2767 58.0314 72.2767ZM76.9719 61.375V43.0026C77.1195 41.4162 77.6729 39.8114 78.6321 38.1882C80.7718 34.7203 83.8523 32.9863 87.8736 32.9863V39.1289C86.8037 39.1658 85.8445 39.4978 84.996 40.125C83.7416 41.1211 83.1145 42.3754 83.1145 43.888V61.375C83.1514 62.7769 83.7416 63.9575 84.8853 64.9167C85.9552 65.7283 86.9513 66.1341 87.8736 66.1341V72.2767C86.1396 72.2767 84.3319 71.7418 82.4504 70.6719C78.7981 68.6059 76.9719 65.5069 76.9719 61.375ZM90.6959 72.2767V66.1341C91.1017 66.1341 91.6182 65.9312 92.2453 65.5254C93.9424 64.4555 94.7909 63.1089 94.7909 61.4857V58.1654H90.6959V52.4655H101.044V62.2604C101.007 64.4371 99.9005 66.6322 97.7239 68.8457C95.3996 71.0961 93.057 72.2398 90.6959 72.2767ZM90.6959 39.1289V32.9863C93.1308 32.9863 95.3996 33.9455 97.5025 35.8639C99.8636 38.0775 101.044 40.6046 101.044 43.4453L94.9569 45.6589V43.888C94.8831 42.8181 94.588 41.8774 94.0715 41.0658C93.1861 39.8114 92.0609 39.1658 90.6959 39.1289ZM108.917 61.209V43.0026C108.917 41.0473 109.747 39.0551 111.407 37.026C113.621 34.3698 116.425 33.0232 119.819 32.9863V39.1289C117.9 39.1658 116.461 40.1988 115.502 42.2279C115.207 42.8919 115.06 43.4453 115.06 43.888V61.209C115.06 63.2012 116.093 64.6769 118.159 65.6361C118.786 65.9312 119.321 66.0788 119.763 66.0788V72.2767C117.66 72.2767 115.558 71.5204 113.455 70.0078C110.466 67.7943 108.954 64.8613 108.917 61.209ZM122.807 72.2767V66.0788C123.766 66.0788 124.762 65.6361 125.795 64.7507C126.902 63.7546 127.474 62.574 127.511 61.209V43.888C127.511 42.7812 127.031 41.7114 126.072 40.6784C125.15 39.6823 124.061 39.1658 122.807 39.1289V32.9863C126.533 32.9863 129.521 34.5911 131.772 37.8008C133.063 39.6454 133.709 41.3793 133.709 43.0026V61.209C133.709 65.304 131.882 68.4399 128.23 70.6165C126.312 71.7233 124.504 72.2767 122.807 72.2767Z" fill="white"/>
</svg>
