<svg width="88" height="40" viewBox="0 0 88 40" fill="none" xmlns="http://www.w3.org/2000/svg">
<path d="M9.86355 31.4854V8.92021H13.474V27.9395H21.9843V31.4854H9.86355ZM25.9902 25.1994V14.5938C25.9902 13.4547 26.4737 12.2943 27.4408 11.1123C28.7302 9.56493 30.3635 8.78052 32.3407 8.75903V12.3372C31.2232 12.3587 30.385 12.9605 29.8263 14.1425C29.6543 14.5293 29.5684 14.8516 29.5684 15.1095V25.1994C29.5684 26.3599 30.1701 27.2195 31.3736 27.7783C31.7389 27.9502 32.0505 28.0362 32.3084 28.0362V31.6466C31.0835 31.6466 29.8585 31.2061 28.6335 30.3249C26.8928 29.0355 26.0117 27.327 25.9902 25.1994ZM34.0814 31.6466V28.0362C34.6402 28.0362 35.2204 27.7783 35.8222 27.2625C36.4669 26.6823 36.8 25.9946 36.8215 25.1994V15.1095C36.8215 14.4648 36.5421 13.8416 35.9833 13.2398C35.4461 12.6596 34.8121 12.3587 34.0814 12.3372V8.75903C36.252 8.75903 37.9927 9.69388 39.3037 11.5636C40.0558 12.6381 40.4319 13.6482 40.4319 14.5938V25.1994C40.4319 27.5849 39.3681 29.4116 37.2405 30.6795C36.123 31.3243 35.07 31.6466 34.0814 31.6466ZM45.1147 25.2961V14.5938C45.2007 13.6697 45.5231 12.7348 46.0818 11.7892C47.3283 9.7691 49.1228 8.75903 51.4652 8.75903V12.3372C50.842 12.3587 50.2833 12.5521 49.789 12.9175C49.0583 13.4977 48.6929 14.2284 48.6929 15.1095V25.2961C48.7144 26.1128 49.0583 26.8005 49.7245 27.3592C50.3477 27.832 50.928 28.0684 51.4652 28.0684V31.6466C50.4552 31.6466 49.4021 31.335 48.3061 30.7118C46.1785 29.5083 45.1147 27.7031 45.1147 25.2961ZM53.1093 31.6466V28.0684C53.3457 28.0684 53.6465 27.9502 54.0119 27.7138C55.0005 27.0906 55.4947 26.3062 55.4947 25.3606V23.4264H53.1093V20.1061H59.1374V25.8119C59.1159 27.0799 58.4712 28.3585 57.2033 29.648C55.8493 30.9589 54.4847 31.6251 53.1093 31.6466ZM53.1093 12.3372V8.75903C54.5277 8.75903 55.8493 9.31779 57.0743 10.4353C58.4497 11.7247 59.1374 13.1969 59.1374 14.8516L55.5915 16.1411V15.1095C55.5485 14.4863 55.3765 13.9383 55.0757 13.4655C54.5599 12.7348 53.9044 12.3587 53.1093 12.3372ZM63.7235 25.1994V14.5938C63.7235 13.4547 64.2071 12.2943 65.1742 11.1123C66.4636 9.56493 68.0969 8.78052 70.074 8.75903V12.3372C68.9565 12.3587 68.1184 12.9605 67.5596 14.1425C67.3877 14.5293 67.3017 14.8516 67.3017 15.1095V25.1994C67.3017 26.3599 67.9035 27.2195 69.107 27.7783C69.4723 27.9502 69.7839 28.0362 70.0418 28.0362V31.6466C68.8168 31.6466 67.5919 31.2061 66.3669 30.3249C64.6261 29.0355 63.745 27.327 63.7235 25.1994ZM71.8148 31.6466V28.0362C72.3735 28.0362 72.9538 27.7783 73.5555 27.2625C74.2002 26.6823 74.5334 25.9946 74.5548 25.1994V15.1095C74.5548 14.4648 74.2755 13.8416 73.7167 13.2398C73.1794 12.6596 72.5455 12.3587 71.8148 12.3372V8.75903C73.9853 8.75903 75.7261 9.69388 77.037 11.5636C77.7892 12.6381 78.1653 13.6482 78.1653 14.5938V25.1994C78.1653 27.5849 77.1015 29.4116 74.9739 30.6795C73.8564 31.3243 72.8034 31.6466 71.8148 31.6466Z" fill="#1A1917"/>
</svg>
