<svg width="36" height="38" viewBox="0 0 36 38" fill="none" xmlns="http://www.w3.org/2000/svg">
<path d="M22.2078 4.64382L20.0746 2.60165C18.9145 1.49107 17.0855 1.49108 15.9254 2.60165L13.7922 4.64382C13.5721 4.85457 13.2678 4.95343 12.9658 4.91233L10.0396 4.51406C8.44833 4.29747 6.96869 5.3725 6.68293 6.95286L6.15747 9.85888C6.10325 10.1588 5.91521 10.4176 5.64674 10.5618L3.04532 11.9596C1.63061 12.7197 1.06544 14.4592 1.76317 15.9057L3.04618 18.5655C3.17859 18.84 3.17859 19.16 3.04618 19.4345L1.76317 22.0943C1.06543 23.5408 1.63061 25.2803 3.04532 26.0404L5.64674 27.4382C5.91521 27.5824 6.10325 27.8412 6.15747 28.1411L6.68293 31.0471C6.96869 32.6275 8.44833 33.7025 10.0397 33.4859L12.9658 33.0877C13.2678 33.0466 13.5721 33.1454 13.7922 33.3562L15.9254 35.3983C17.0855 36.5089 18.9145 36.5089 20.0746 35.3983L22.2078 33.3562C22.4279 33.1454 22.7322 33.0466 23.0342 33.0877L25.9604 33.4859C27.5517 33.7025 29.0313 32.6275 29.3171 31.0471L29.8425 28.1411C29.8968 27.8412 30.0848 27.5824 30.3533 27.4382L32.9547 26.0404C34.3694 25.2803 34.9346 23.5408 34.2368 22.0943L32.9538 19.4345C32.8214 19.16 32.8214 18.84 32.9538 18.5655L34.2368 15.9057C34.9346 14.4592 34.3694 12.7197 32.9547 11.9596L30.3533 10.5618C30.0848 10.4176 29.8968 10.1588 29.8425 9.85888L29.3171 6.95286C29.0313 5.37249 27.5517 4.29747 25.9603 4.51406L23.0342 4.91233C22.7322 4.95343 22.4279 4.85457 22.2078 4.64382Z" stroke="#3D3E40" stroke-width="2"/>
<path d="M24.6668 14L15.5002 23.1667L11.3335 19" stroke="#3D3E40" stroke-width="2" stroke-linecap="round" stroke-linejoin="round"/>
</svg>
